<?xml version="1.0" encoding="UTF-8" standalone="no"?>
<!-- Created with Inkscape (http://www.inkscape.org/) -->

<svg
   xmlns:dc="http://purl.org/dc/elements/1.1/"
   xmlns:cc="http://creativecommons.org/ns#"
   xmlns:rdf="http://www.w3.org/1999/02/22-rdf-syntax-ns#"
   xmlns:svg="http://www.w3.org/2000/svg"
   xmlns="http://www.w3.org/2000/svg"
   xmlns:sodipodi="http://sodipodi.sourceforge.net/DTD/sodipodi-0.dtd"
   xmlns:inkscape="http://www.inkscape.org/namespaces/inkscape"
   width="744.09448819"
   height="1052.3622047"
   id="svg2"
   version="1.1"
   inkscape:version="0.48.4 r9939"
   sodipodi:docname="byhand.svg"
   inkscape:export-filename="/home/jsola/dev/UVIC/graphSLAM/src/common/world/byhand.png"
   inkscape:export-xdpi="90"
   inkscape:export-ydpi="90">
  <defs
     id="defs4" />
  <sodipodi:namedview
     id="base"
     pagecolor="#ffffff"
     bordercolor="#666666"
     borderopacity="1.0"
     inkscape:pageopacity="0.0"
     inkscape:pageshadow="2"
     inkscape:zoom="0.49497475"
     inkscape:cx="66.987761"
     inkscape:cy="433.01041"
     inkscape:document-units="px"
     inkscape:current-layer="layer1"
     showgrid="false"
     inkscape:window-width="973"
     inkscape:window-height="858"
     inkscape:window-x="61"
     inkscape:window-y="156"
     inkscape:window-maximized="0" />
  <metadata
     id="metadata7">
    <rdf:RDF>
      <cc:Work
         rdf:about="">
        <dc:format>image/svg+xml</dc:format>
        <dc:type
           rdf:resource="http://purl.org/dc/dcmitype/StillImage" />
        <dc:title />
      </cc:Work>
    </rdf:RDF>
  </metadata>
  <g
     inkscape:label="Layer 1"
     inkscape:groupmode="layer"
     id="layer1">
    <path
       style="fill:none;stroke:#000000;stroke-width:1.04894387999999994px;stroke-linecap:butt;stroke-linejoin:miter;stroke-opacity:1;opacity:0"
       d="m 161.69667,92.477773 131.36761,-56.304581 396.25644,79.243478 -36.61065,129.292 62.45346,160.57231 -139.98189,118.86522 62.45347,133.46272 64.60702,95.92632 L 592.41017,822.35195 407.20338,766.04736 368.43916,876.57117 265.06792,866.1444 284.45001,766.04736 138.00743,715.99884 58.325426,751.44988 36.78975,638.84071 215.53586,574.19473 105.70392,530.40228 97.089645,436.5613 30.329048,390.68351 88.475373,286.41577 49.711157,205.08694 166.0038,163.37983 z"
       id="path2997"
       inkscape:connector-curvature="0" />
    <path
       style="fill:none;stroke:#000000;stroke-width:12;stroke-linecap:round;stroke-linejoin:round;stroke-miterlimit:4;stroke-opacity:1;stroke-dasharray:none"
       d="m 74.751288,203.83404 163.511522,-40.84146 48.45143,28.53739 6.44429,-44.9489 -58.14078,-66.625512 98.33259,-11.481954 100.99053,28.632472 85.34731,-31.387046 74.28152,47.20129 -20.79325,64.78596 57.15874,92.79783 -135.36044,58.58885 115.64505,13.93314 -50.99529,58.79784 123.23861,-14.14213 -10.10153,90.91373 c 0,0 3.94001,99.79693 -22.63939,114.40016 -25.96524,14.26579 -82.44008,-56.73882 -84.43677,-49.7504 -2.00523,7.01832 46.81454,62.88845 57.83518,111.28839 11.18629,49.1275 -15.40878,90.74212 -15.40878,90.74212 l 12.74347,85.78526 59.98752,23.31121 -28.28428,98.99495 -68.69037,-42.4264 -119.198,48.48732 -195.96959,0 127.27922,-78.7919 c -14.33845,-27.15153 109.9886,-77.41398 -43.01535,-81.45459 9.93527,-47.64688 -2.68967,-82.98819 -51.93899,-98.35256 l -36.36549,14.14213 34.34518,111.11678 -82.04077,16.46276 13.3504,118.89769 -129.29953,38.38579 -56.568538,-60.60915 c 0,0 -3.498147,-62.12432 13.503391,-106.83521 C 73.029005,792.73516 108.97539,770.22692 107.07617,765.47886 105.40822,761.30899 81.634895,741.55689 68.526396,715.05233 49.879472,677.34943 40.406102,630.11842 40.406102,630.11842 L 84.017247,577.393 135.70833,544.40948 57.783147,456.63935 189.90868,438.18944 143.44166,403.84425 137.38075,294.74777 22.223356,310.91021 18.182746,50.290858 177.78685,32.108112 c 0,0 2.0203,30.304577 2.0203,40.406102 0,10.101526 -105.055862,131.319826 -105.055862,131.319826 z"
       id="path2999"
       inkscape:connector-curvature="0"
       sodipodi:nodetypes="ccccccccccccccccsssccccccccccccccccsssccccccccccsc" />
  </g>
</svg>
